<svg xmlns="http://www.w3.org/2000/svg" viewBox="0 0 64 64">
  <defs>
    <linearGradient id="g" x1="0" y1="0" x2="64" y2="64" gradientUnits="userSpaceOnUse">
      <stop offset="0" stop-color="#22d3ee"/>
      <stop offset="1" stop-color="#a855f7"/>
    </linearGradient>
  </defs>
  <rect width="64" height="64" rx="14" fill="#0b1220"/>
  <path d="M12 52V12h20q8 0 12 4.5T48 28q0 4.5-2.5 7.5T39 39q5.5 1 8.5 4.5T50.5 52H38.5q0-4-2-6T30 44h-6v8zm12-20h6q3 0 4.5-1.5T36 26q0-3-1.5-4.5T30 20h-6z"
        fill="url(#g)"/>
  <path d="M12 52V12h20q8 0 12 4.5T48 28q0 4.5-2.5 7.5T39 39q5.5 1 8.5 4.5T50.5 52H38.5q0-4-2-6T30 44h-6v8zm12-20h6q3 0 4.5-1.5T36 26q0-3-1.5-4.5T30 20h-6z"
        fill="none" stroke="#22d3ee" stroke-opacity=".4" stroke-width="1"/>
</svg>
