<svg xmlns="http://www.w3.org/2000/svg" viewBox="0 0 64 64">
  <defs>
    <linearGradient id="bg" x1="0" y1="0" x2="64" y2="64" gradientUnits="userSpaceOnUse">
      <stop offset="0" stop-color="#1a1205"/>
      <stop offset="1" stop-color="#05040a"/>
    </linearGradient>
    <linearGradient id="gold" x1="12" y1="12" x2="52" y2="52" gradientUnits="userSpaceOnUse">
      <stop offset="0" stop-color="#f4d27a"/>
      <stop offset="0.5" stop-color="#d4af37"/>
      <stop offset="1" stop-color="#9a7b2a"/>
    </linearGradient>
  </defs>
  <rect width="64" height="64" rx="14" fill="url(#bg)"/>
  <rect x="3" y="3" width="58" height="58" rx="12" fill="none" stroke="#d4af37" stroke-opacity="0.35" stroke-width="1"/>
  <path d="M12 52V12h20q8 0 12 4.5T48 28q0 4.5-2.5 7.5T39 39q5.5 1 8.5 4.5T50.5 52H38.5q0-4-2-6T30 44h-6v8zm12-20h6q3 0 4.5-1.5T36 26q0-3-1.5-4.5T30 20h-6z"
        fill="url(#gold)"/>
  <path d="M12 52V12h20q8 0 12 4.5T48 28q0 4.5-2.5 7.5T39 39q5.5 1 8.5 4.5T50.5 52H38.5q0-4-2-6T30 44h-6v8zm12-20h6q3 0 4.5-1.5T36 26q0-3-1.5-4.5T30 20h-6z"
        fill="none" stroke="#f4d27a" stroke-opacity=".5" stroke-width="0.8"/>
</svg>
